<svg xmlns="http://www.w3.org/2000/svg" xmlns:xlink="http://www.w3.org/1999/xlink" viewBox="0 0 252.92 96.37"><defs><style>.cls-1{fill:url(#Безымянный_градиент_13);}.cls-2{fill:url(#Безымянный_градиент_13-2);}.cls-3{fill:url(#Безымянный_градиент_13-3);}.cls-4{fill:#5b121b;}.cls-5{fill:url(#Безымянный_градиент_13-4);}.cls-6{fill:url(#Безымянный_градиент_13-5);}.cls-7{fill:url(#Безымянный_градиент_13-6);}.cls-8{fill:url(#Безымянный_градиент_32);}.cls-9{font-size:40px;fill:#681515;font-family:Georgia-Bold, Georgia;font-weight:700;}.cls-10{fill:#d81324;}.cls-10,.cls-11,.cls-12,.cls-13,.cls-14{font-family:Gabriola;font-weight:400;}.cls-11,.cls-12,.cls-13,.cls-14{fill:#770e0e;}.cls-12{letter-spacing:-0.04em;}.cls-13{letter-spacing:0em;}.cls-14{letter-spacing:-0.01em;}</style><linearGradient id="Безымянный_градиент_13" x1="8.17" y1="83.2" x2="167.12" y2="83.2" gradientTransform="translate(0.8 -2.63) rotate(1.04)" gradientUnits="userSpaceOnUse"><stop offset="0" stop-color="#5cb8ff"/><stop offset="1" stop-color="#2f2569"/></linearGradient><linearGradient id="Безымянный_градиент_13-2" x1="140.72" y1="76.85" x2="247.47" y2="96.98" xlink:href="#Безымянный_градиент_13"/><linearGradient id="Безымянный_градиент_13-3" x1="185.05" y1="87.37" x2="253.24" y2="82.32" xlink:href="#Безымянный_градиент_13"/><linearGradient id="Безымянный_градиент_13-4" x1="72.58" y1="79.08" x2="167.12" y2="79.08" xlink:href="#Безымянный_градиент_13"/><linearGradient id="Безымянный_градиент_13-5" x1="63.16" y1="72.71" x2="204.52" y2="72.71" xlink:href="#Безымянный_градиент_13"/><linearGradient id="Безымянный_градиент_13-6" x1="178.6" y1="85.23" x2="222.59" y2="93.53" xlink:href="#Безымянный_градиент_13"/><linearGradient id="Безымянный_градиент_32" x1="230.59" y1="89.23" x2="253.97" y2="89.23" gradientTransform="matrix(1, -0.02, 0.02, 1, -0.81, 7.8)" gradientUnits="userSpaceOnUse"><stop offset="0" stop-color="#ff8778"/><stop offset="1" stop-color="#9c122b"/></linearGradient></defs><g id="OBJECTS"><path class="cls-1" d="M166.64,68.67c-2.32,12.55-20.21,18.21-43.23,20.72C78.78,94.26,14.82,87.27,7.19,95.64c7.63-9.93,34.69-11.92,64.51-12.77h.14C112,81.71,157.24,82.58,166.64,68.67Z" transform="translate(-5 -60.9)"/><path class="cls-2" d="M254.83,80.9c-38.88,9.39-72.63-19-131-14.36C109.12,67.7,62.41,83.19,62.41,83.19c11.47-6.68,51.73-19.35,61.18-20.44,8.5-1,41.36-5.7,80.48,5.18h0c3.39.95,6.82,2,10.29,3.19C239.49,79.73,254.83,80.9,254.83,80.9Z" transform="translate(-5 -60.9)"/><path class="cls-3" d="M254.83,80.9c-15.24,16.35-52,9.81-83,8.66-9.66-.36-18.77-.2-26.49,1.33,28-12.34,58.24-8.53,80.53-6.88h0C239,85,249.36,85.2,254.83,80.9Z" transform="translate(-5 -60.9)"/><path class="cls-4" d="M32.71,95.31c-2.49,6.52-11.22,6.53-18.32,6.4-4.35-.07-8.09-.2-9.39,1.1,1.71-6.26,12.08-7.87,19.77-8A43.29,43.29,0,0,1,32.71,95.31Z" transform="translate(-5 -60.9)"/><path class="cls-5" d="M166.64,68.67c-2.32,12.55-20.21,18.21-43.23,20.72-18.1.8-25-7.13-51.57-6.51C112,81.71,157.24,82.58,166.64,68.67Z" transform="translate(-5 -60.9)"/><path class="cls-6" d="M204.07,67.93c-24.7-3.68-46.2-6.93-80.28-1.39C109.12,67.7,62.41,83.19,62.41,83.19c11.47-6.68,51.73-19.35,61.18-20.44C132.09,61.78,165,57.05,204.07,67.93Z" transform="translate(-5 -60.9)"/><path class="cls-7" d="M225.83,84c-18.54-.32-24,6.06-54,5.54h0c-9.66-.36-18.77-.2-26.49,1.33C173.26,78.55,203.54,82.36,225.83,84Z" transform="translate(-5 -60.9)"/><path class="cls-8" d="M231.72,94.72c16-1.86,22.78-8.3,22.78-8.3C256.46,94.09,253.4,100.24,231.72,94.72Z" transform="translate(-5 -60.9)"/></g><g id="TEXTS"><text class="cls-9" transform="translate(29.82 69.37) scale(0.9 1)">HQ<tspan class="cls-10" x="69.32" y="0"> </tspan><tspan class="cls-11" x="76.3" y="0">Cash </tspan><tspan class="cls-12" x="145.12" y="0">F</tspan><tspan class="cls-13" x="159.04" y="0">o</tspan><tspan class="cls-14" x="173.25" y="0">r</tspan><tspan class="cls-11" x="184.56" y="0" xml:space="preserve"> Cars</tspan></text></g></svg>